<mxfile host="app.diagrams.net" agent="Mozilla/5.0 (X11; Linux x86_64; rv:134.0) Gecko/20100101 Firefox/134.0" version="27.0.6">
  <diagram name="Page-1" id="aX_mvpipbXlyV8jRKNnO">
    <mxGraphModel dx="1665" dy="767" grid="1" gridSize="10" guides="1" tooltips="1" connect="1" arrows="1" fold="1" page="1" pageScale="1" pageWidth="850" pageHeight="1100" math="0" shadow="0">
      <root>
        <mxCell id="0" />
        <mxCell id="1" parent="0" />
        <mxCell id="obU-7nyiHeIzabxEXT5a-1" value="LTE" style="rounded=0;whiteSpace=wrap;html=1;" vertex="1" parent="1">
          <mxGeometry x="390" y="280" width="120" height="60" as="geometry" />
        </mxCell>
        <mxCell id="obU-7nyiHeIzabxEXT5a-17" value="" style="edgeStyle=orthogonalEdgeStyle;rounded=0;orthogonalLoop=1;jettySize=auto;html=1;" edge="1" parent="1" source="obU-7nyiHeIzabxEXT5a-2" target="obU-7nyiHeIzabxEXT5a-16">
          <mxGeometry relative="1" as="geometry" />
        </mxCell>
        <mxCell id="obU-7nyiHeIzabxEXT5a-2" value="AI CLUSTER" style="rounded=0;whiteSpace=wrap;html=1;" vertex="1" parent="1">
          <mxGeometry x="390" y="360" width="120" height="60" as="geometry" />
        </mxCell>
        <mxCell id="obU-7nyiHeIzabxEXT5a-4" value="" style="endArrow=classic;html=1;rounded=0;exitX=0.5;exitY=0;exitDx=0;exitDy=0;entryX=0.5;entryY=1;entryDx=0;entryDy=0;" edge="1" parent="1" source="obU-7nyiHeIzabxEXT5a-2" target="obU-7nyiHeIzabxEXT5a-1">
          <mxGeometry width="50" height="50" relative="1" as="geometry">
            <mxPoint x="560" y="640" as="sourcePoint" />
            <mxPoint x="600" y="530" as="targetPoint" />
            <Array as="points">
              <mxPoint x="450" y="340" />
            </Array>
          </mxGeometry>
        </mxCell>
        <mxCell id="obU-7nyiHeIzabxEXT5a-8" value="" style="endArrow=classic;html=1;rounded=0;exitX=1;exitY=0.5;exitDx=0;exitDy=0;entryX=0;entryY=0.5;entryDx=0;entryDy=0;" edge="1" parent="1" source="obU-7nyiHeIzabxEXT5a-2" target="obU-7nyiHeIzabxEXT5a-10">
          <mxGeometry width="50" height="50" relative="1" as="geometry">
            <mxPoint x="290" y="420" as="sourcePoint" />
            <mxPoint x="220" y="480" as="targetPoint" />
          </mxGeometry>
        </mxCell>
        <mxCell id="obU-7nyiHeIzabxEXT5a-10" value="DEVICE" style="rounded=0;whiteSpace=wrap;html=1;" vertex="1" parent="1">
          <mxGeometry x="560" y="360" width="120" height="60" as="geometry" />
        </mxCell>
        <mxCell id="obU-7nyiHeIzabxEXT5a-12" value="" style="edgeStyle=orthogonalEdgeStyle;rounded=0;orthogonalLoop=1;jettySize=auto;html=1;" edge="1" parent="1" source="obU-7nyiHeIzabxEXT5a-11" target="obU-7nyiHeIzabxEXT5a-1">
          <mxGeometry relative="1" as="geometry" />
        </mxCell>
        <mxCell id="obU-7nyiHeIzabxEXT5a-19" value="" style="edgeStyle=orthogonalEdgeStyle;rounded=0;orthogonalLoop=1;jettySize=auto;html=1;entryX=1;entryY=0.5;entryDx=0;entryDy=0;" edge="1" parent="1" source="obU-7nyiHeIzabxEXT5a-11" target="obU-7nyiHeIzabxEXT5a-21">
          <mxGeometry relative="1" as="geometry" />
        </mxCell>
        <mxCell id="obU-7nyiHeIzabxEXT5a-11" value="OUTSIDE&lt;br&gt;NETWORK&lt;br&gt;APP" style="whiteSpace=wrap;html=1;aspect=fixed;" vertex="1" parent="1">
          <mxGeometry x="280" y="270" width="80" height="80" as="geometry" />
        </mxCell>
        <mxCell id="obU-7nyiHeIzabxEXT5a-16" value="AI DB" style="shape=cylinder3;whiteSpace=wrap;html=1;boundedLbl=1;backgroundOutline=1;size=15;" vertex="1" parent="1">
          <mxGeometry x="420" y="450" width="60" height="80" as="geometry" />
        </mxCell>
        <mxCell id="obU-7nyiHeIzabxEXT5a-18" value="APP DB" style="shape=cylinder3;whiteSpace=wrap;html=1;boundedLbl=1;backgroundOutline=1;size=15;" vertex="1" parent="1">
          <mxGeometry x="170" y="380" width="60" height="80" as="geometry" />
        </mxCell>
        <mxCell id="obU-7nyiHeIzabxEXT5a-20" value="&lt;font style=&quot;font-size: 24px;&quot;&gt;ВАРИАНТ 2&lt;br&gt;&lt;/font&gt;" style="text;strokeColor=none;align=center;fillColor=none;html=1;verticalAlign=middle;whiteSpace=wrap;rounded=0;" vertex="1" parent="1">
          <mxGeometry x="290" y="220" width="170" height="30" as="geometry" />
        </mxCell>
        <mxCell id="obU-7nyiHeIzabxEXT5a-21" value="APP SERVER/DBSM" style="rounded=0;whiteSpace=wrap;html=1;" vertex="1" parent="1">
          <mxGeometry x="140" y="290" width="120" height="40" as="geometry" />
        </mxCell>
        <mxCell id="obU-7nyiHeIzabxEXT5a-22" value="" style="endArrow=classic;html=1;rounded=0;exitX=0.5;exitY=1;exitDx=0;exitDy=0;entryX=0.5;entryY=0;entryDx=0;entryDy=0;entryPerimeter=0;" edge="1" parent="1" source="obU-7nyiHeIzabxEXT5a-21" target="obU-7nyiHeIzabxEXT5a-18">
          <mxGeometry width="50" height="50" relative="1" as="geometry">
            <mxPoint x="400" y="400" as="sourcePoint" />
            <mxPoint x="450" y="350" as="targetPoint" />
          </mxGeometry>
        </mxCell>
        <mxCell id="obU-7nyiHeIzabxEXT5a-23" value="" style="endArrow=none;html=1;rounded=0;" edge="1" parent="1">
          <mxGeometry width="50" height="50" relative="1" as="geometry">
            <mxPoint x="370" y="530" as="sourcePoint" />
            <mxPoint x="370" y="250" as="targetPoint" />
          </mxGeometry>
        </mxCell>
      </root>
    </mxGraphModel>
  </diagram>
</mxfile>
